PathFileType	4	(X/Y/Z)	C:/Users/beibeiliu/ov580/test_trc\sequence.25_training_dense_right.trc
DataRate	CameraRate	NumFrames	NumMarkers	Units	OrigDataRate	OrigDataStartFrame	OrigNumFrames
120	120	10	19	mm	120	263	300
Frame#	Time	ThumbCMC			ThumbMCP			ThumbIP			ThumbTip			IndexMCP			IndexPIP			IndexTip			MiddleMCP			MiddlePIP			MiddleTip			RingMCP			RingPIP			RingTip			PinkyMCP			PinkyPIP			PinkyTip			BackHand1			BackHand2			BackHand3	
		X0	Y0	Z0	X1	Y1	Z1	X2	Y2	Z2	X3	Y3	Z3	X4	Y4	Z4	X5	Y5	Z5	X6	Y6	Z6	X7	Y7	Z7	X8	Y8	Z8	X9	Y9	Z9	X10	Y10	Z10	X11	Y11	Z11	X12	Y12	Z12	X13	Y13	Z13	X14	Y14	Z14	X15	Y15	Z15	X16	Y16	Z16	X17	Y17	Z17	X18	Y18	Z18	
262	2.18333	155.023	27.603	25.5245	147.366	9.56972	7.27137	142.135	1.78239	-15.7912	141.837	-6.01626	-34.3368	165.256	32.1765	-41.5114	166.559	24.863	-59.0494	165.452	18.6711	-80.6692	189.298	31.1206	-43.5017	189.393	25.183	-67.0284	191.494	20.8731	-87.5832	206.378	24.8636	-34.0628	207.34	12.3785	-55.5068	210.831	-0.0100252	-73.5823	223.733	19.4555	-19.9703	226.954	9.85452	-35.6427	228.907	-1.18317	-50.3073	207.035	44.0251	12.0553	203.043	50.7644	34.7378	178.109	51.2589	16.011	
263	2.19167	157.937	27.3421	24.2696	148.923	11.7312	4.41744	145.852	4.28672	-20.4392	140.5	-3.42464	-35.4848	167.553	31.79	-41.1538	164.799	24.7426	-60.6994	165.503	18.8605	-78.1872	191.86	30.4285	-41.519	191.699	24.4459	-63.2777	191.308	21.0881	-89.0514	208.851	24.725	-35.2016	214.453	15.0596	-54.4339	215.823	5.62086	-72.2558	227.358	19.2955	-17.7825	231.074	10.4782	-35.4799	235.074	6.85677	-52.3947	207.114	42.3925	10.7385	204.787	48.8444	35.1445	179.843	47.8323	19.2265	
264	2.2	157.153	26.8325	29.0818	151.015	12.0943	6.88509	145.778	5.29747	-19.8964	143.126	-1.93085	-33.6597	171.781	30.0073	-41.6172	167.888	23.2759	-58.9421	171.137	16.5199	-78.9537	194.753	28.6105	-42.8659	195.814	23.7727	-64.8894	197.716	20.2365	-90.6135	214.362	23.2126	-32.7237	213.9	15.8225	-55.3462	219.589	6.41821	-76.3938	227.432	17.7342	-17.7525	233.396	11.9899	-35.1923	239.076	9.00359	-54.7085	212.527	38.8105	12.0966	206.566	44.7969	32.8415	182.907	46.5925	18.871	
265	2.20833	163.755	26.706	25.822	151.533	13.4115	3.96335	144.699	7.19037	-19.7128	138.185	0.608153	-36.3234	176.175	28.9201	-39.5837	172.964	22.447	-59.0707	172.355	15.8662	-81.3648	196.68	27.3111	-45.0719	197.248	22.2065	-63.7399	202.849	18.7605	-87.9019	214.746	20.7799	-33.9592	220.944	14.953	-56.283	221.036	9.47276	-71.9332	234.196	14.4183	-17.6944	235.624	11.3275	-30.4545	246.485	8.91083	-48.8839	214.419	34.2856	7.58665	209.99	43.0698	37.0132	185.348	45.8801	18.0601	
266	2.21667	161.536	25.7529	25.9056	153.221	13.2083	6.51383	147.831	9.36153	-15.3297	135.598	3.47152	-34.5795	178.126	28.0159	-35.7332	173.053	20.3005	-61.1475	174.523	14.5829	-79.8889	199.417	24.6284	-43.7182	198.692	21.8771	-64.9504	199.807	20.2185	-87.2482	214.894	20.4159	-33.0332	223.716	13.8622	-50.6291	224.951	9.92573	-73.7256	230.692	13.3205	-13.625	242.225	9.00717	-28.677	247.38	13.3736	-47.8428	215.584	33.3734	10.682	212.532	37.58	33.2572	189.276	41.3523	20.2465	
267	2.225	166.521	22.388	31.6047	153.249	13.8794	7.11483	145.417	10.1028	-13.9819	137.107	5.65401	-30.9261	173.193	25.2201	-35.9522	176.386	17.7171	-56.9359	175.077	12.0319	-82.8331	197.056	22.9121	-42.0137	200.488	18.5029	-63.4532	202.702	19.0282	-85.1699	218.002	18.159	-32.009	220.593	14.2589	-53.2769	225.112	12.0159	-75.1652	232.715	10.3002	-13.3085	242.659	7.81514	-26.526	252.175	11.8916	-45.4186	216.705	29.9806	9.06287	214.143	36.6601	34.6976	188.968	39.1823	17.4921	
268	2.23333	163.932	21.4858	34.0723	148.859	13.6474	8.6573	144.128	10.1939	-9.24478	132.873	9.00774	-29.8608	177.724	21.4203	-38.6311	171.846	14.669	-58.5383	171.425	9.56469	-78.8803	199.734	18.8769	-40.545	198.107	16.0755	-60.1482	206.774	15.6186	-86.4511	217.58	15.6128	-32.0608	221.201	12.2205	-52.325	225.229	10.4292	-71.4529	235.837	6.93206	-11.5745	244.753	6.24147	-28.9675	256.289	10.7345	-40.5807	215.189	25.9203	10.0916	215.829	30.4354	38.5343	187.941	36.4113	23.8176	
269	2.24167	168.386	17.729	31.901	152.556	12.8419	10.5752	142.87	10.0776	-9.58973	133.385	8.45897	-26.2636	174.637	18.469	-34.9593	175.353	10.8381	-58.1651	174.756	5.63717	-76.1707	197.914	16.3516	-37.3076	203.376	12.2607	-61.8137	208.374	12.4665	-85.2072	220.347	11.1023	-26.7876	223.171	8.44788	-47.5463	227.343	6.90563	-67.4784	239.056	2.85371	-10.0645	246.067	1.58206	-25.9249	257.771	5.73792	-38.6807	216.494	23.8611	11.5144	215.232	29.6429	35.7621	189.058	33.7904	22.2872	
270	2.25	164.785	17.8655	33.0345	149.953	11.6072	14.3516	145.114	8.90199	-5.44249	136.375	7.79687	-24.4128	179.263	15.276	-34.4958	177.291	7.38533	-57.2687	174.681	2.70282	-75.8065	199.11	13.4182	-37.8115	203.431	9.17095	-58.2512	204.348	10.5012	-85.364	221.295	7.11743	-28.2884	224.875	5.19901	-51.3909	230.698	4.8735	-70.8052	238.419	0.0274879	-7.8663	247.474	-2.65672	-22.0149	255.523	2.46337	-38.714	216.336	18.8182	16.3862	213.898	27.5799	40.4528	192.211	31.8721	25.5051	
271	2.25833	166.144	14.3601	35.0506	150.243	9.98729	14.278	141.361	9.0481	-5.15209	135.24	9.34731	-23.9219	177.882	12.2552	-32.5146	175.23	5.75375	-54.9481	174.691	-1.77087	-79.3537	200.894	10.1966	-36.2078	204.876	6.85842	-57.366	207.604	5.73694	-81.1148	221.471	4.55797	-25.3506	229.745	0.753461	-47.9063	231.895	1.52014	-67.345	237.335	-2.56698	-8.48393	249.932	-5.0082	-24.1628	257.208	1.24084	-36.1556	216.791	18.4969	12.5804	218.634	21.1839	42.7733	191.454	29.402	24.7897	
